HIERARCHY
ROOT pelvis
{
  OFFSET 0 100 0
  CHANNELS 6 Xposition Yposition Zposition Zrotation Xrotation Yrotation
  JOINT pelvis_right_femur
  {
    OFFSET -10.78128 -3.44521 -0.5502486
    CHANNELS 3 Zrotation Xrotation Yrotation
    JOINT right_femur_tibia
    {
      OFFSET -0.8047443 -44.0398 -0.1307829
      CHANNELS 3 Zrotation Xrotation Yrotation
      JOINT right_tibia_foot
      {
        OFFSET 3.006224 -47.83518 -5
        CHANNELS 3 Zrotation Xrotation Yrotation
        End Site
        {
          OFFSET 0 -5 15
        }
      }
    }
  }
  JOINT pelvis_left_femur
  {
    OFFSET 10.78128 -3.44521 -0.5502486
    CHANNELS 3 Zrotation Xrotation Yrotation
    JOINT left_femur_tibia
    {
      OFFSET 0.8047443 -44.0398 -0.1307829
      CHANNELS 3 Zrotation Xrotation Yrotation
      JOINT left_tibia_foot
      {
        OFFSET -4.370144 -48.10324 -4.275266
        CHANNELS 3 Zrotation Xrotation Yrotation
        End Site
        {
          OFFSET 0 -5 15
        }
      }
    }
  }
  JOINT pelvis_spine1
  {
    OFFSET 0 6.468898 -3.129235
    CHANNELS 3 Zrotation Xrotation Yrotation
    JOINT spine1
    {
      OFFSET 0 23.15396 4.99043
      CHANNELS 3 Zrotation Xrotation Yrotation
      JOINT spine2
      {
        OFFSET 0 20.79997 -5.064912
        CHANNELS 3 Zrotation Xrotation Yrotation
        JOINT neck
        {
          OFFSET 0 14.38658 9.616178
          CHANNELS 3 Zrotation Xrotation Yrotation
          End Site
          {
            OFFSET 0 20 0
          }
        }
      }
      JOINT right_manubrium
      {
        OFFSET -5.722621 16.35077 3.967754
        CHANNELS 3 Zrotation Xrotation Yrotation
        JOINT right_clavicle
        {
          OFFSET -13.16364 1.694482 -4.693211
          CHANNELS 3 Zrotation Xrotation Yrotation
          JOINT right_humerus
          {
            OFFSET -28.5034 -0.3100689 -2.792744
            CHANNELS 3 Zrotation Xrotation Yrotation
            JOINT right_radius
            {
              OFFSET -25.15693 0.02248979 -1.271978
              CHANNELS 3 Zrotation Xrotation Yrotation
              End Site
              {
                OFFSET -15 0 0
              }
            }
          }
        }
      }
      JOINT left_manubrium
      {
        OFFSET 5.722621 16.35077 3.967754
        CHANNELS 3 Zrotation Xrotation Yrotation
        JOINT left_clavicle
        {
          OFFSET 13.16364 1.694482 -4.693211
          CHANNELS 3 Zrotation Xrotation Yrotation
          JOINT left_humerus
          {
            OFFSET 29.39168 -1.063119 -2.237045
            CHANNELS 3 Zrotation Xrotation Yrotation
            JOINT left_radius
            {
              OFFSET 24.59957 -0.9528479 0.9047498
              CHANNELS 3 Zrotation Xrotation Yrotation
              End Site
              {
                OFFSET 15 -0 -0
              }
            }
          }
        }
      }
    }
  }
}
MOTION
Frames: 19
Frame Time: 0.0416666666667
-919.0808 105.7846 2559.881 -5.16117 -3.132525 -66.63344 2.146088 -22.87612 -7.265359 -0 6.045667 -0 -14.40148 10.33363 2.662914 -5.660154 14.75843 -9.811394 -0 18.68097 -0 4.83331 -19.56111 18.41264 -2.671363 -0.0108588 3.187599 2.114636 11.31237 -8.546721 0.2503412 20.47297 7.76251 5.909675 -20.4617 5.610245 5.859452 -13.78399 11.59465 88.43469 35.28788 -22.13201 -0 0 5.481051 -18.08661 9.857206 7.85783 8.845108 -24.93604 -3.256794 -83.73263 10.44354 5.990992 0 0 -23.59526 16.28903 7.950114 -7.688549
-924.303 105.0295 2561.974 -4.926729 -2.399335 -66.93918 3.512722 -23.73492 -6.146763 -0 5.734418 -0 -13.72235 9.396821 1.729709 -5.161147 15.2385 -9.376992 -0 22.22065 -0 4.640971 -18.58456 17.63939 -2.656724 -0.02703077 3.195538 2.159571 11.30738 -8.573457 0.2548493 20.43616 7.759203 5.859256 -20.59153 5.65767 5.8562 -13.83245 11.60846 88.42037 35.2328 -22.1425 -0 0 5.519345 -18.03152 9.910503 7.928689 8.789268 -24.88731 -3.218173 -83.77178 10.59747 6.120085 0 0 -23.59103 16.14722 7.946116 -7.45541
-929.7374 104.6333 2564.073 -4.854756 -1.696414 -67.28694 4.904868 -23.65475 -4.965904 -0 6.670629 -0 -13.38906 8.496831 0.8782958 -4.557943 15.01532 -8.855085 -0 26.74146 -0 4.37282 -16.84703 16.57529 -2.633723 -0.05058108 3.299573 2.160797 11.28843 -8.495016 0.2762096 20.40748 7.724254 5.785049 -20.72712 5.711993 5.858415 -14.0728 11.63003 88.11751 35.20353 -21.72118 -0 0 5.962445 -18.00292 9.977609 8.109621 8.652349 -24.6621 -3.132297 -84.03604 10.94869 6.756528 0 0 -23.08491 15.79811 8.023858 -6.940668
-935.3496 104.6696 2566.175 -4.933567 -1.09664 -67.67241 6.166743 -22.57215 -3.846556 -0 8.249194 -0 -13.39391 7.54717 0.1727893 -3.893082 14.02309 -8.294555 -0 32.17455 -0 3.930486 -14.51171 15.34633 -2.604439 -0.0804323 3.479287 2.125973 11.25646 -8.334844 0.3116178 20.38898 7.659276 5.690725 -20.85513 5.765857 5.861629 -14.46132 11.65638 87.59341 35.17837 -20.96778 -0 0 6.726101 -17.9844 10.0442 8.364741 8.450719 -24.30023 -3.014967 -84.48125 11.46369 7.7849 0 0 -22.20493 15.26866 8.16702 -6.186673
-941.0707 105.1596 2568.256 -5.140244 -0.6679811 -68.10899 7.170969 -20.43445 -2.837088 -0 9.990403 -0 -13.62595 6.380738 -0.3649506 -3.215117 12.13957 -7.765323 -0 38.32089 -0 3.234202 -11.79883 14.15129 -2.57191 -0.1121012 3.716206 2.056943 11.21338 -8.110823 0.3586848 20.38687 7.562107 5.581897 -20.94344 5.803659 5.859863 -14.95411 11.68364 86.90804 35.13253 -19.96544 -0 0 7.733184 -17.97073 10.0919 8.661269 8.200357 -23.83925 -2.886501 -85.06248 12.10218 9.088674 0 0 -21.06817 14.57853 8.355901 -5.231826
-946.7905 106.0542 2570.279 -5.45098 -0.4671735 -68.62201 7.831046 -17.26702 -1.949362 -0 11.47209 -0 -13.90581 4.806585 -0.7382144 -2.566813 9.218281 -7.311027 -0 44.68453 -0 2.272304 -9.011 13.23853 -2.53965 -0.1380899 3.996042 1.95076 11.16345 -7.834313 0.4149761 20.4084 7.429536 5.46596 -20.95025 5.805477 5.846789 -15.5117 11.70843 86.10867 35.04298 -18.77416 -0 0 8.917775 -17.97442 10.10407 8.977898 7.916034 -23.31138 -2.767912 -85.73526 12.81422 10.56071 0 0 -19.76985 13.74588 8.564168 -4.114857
-952.3755 107.216 2572.197 -5.851592 -0.5215747 -69.23937 8.125517 -13.25543 -1.208689 -0 12.28157 -0 -14.03195 2.722027 -0.9579278 -1.965278 5.199238 -6.895532 -0 50.35658 -0 1.165907 -6.532751 12.84705 -2.511048 -0.1499683 4.306511 1.804398 11.11365 -7.514785 0.4773679 20.45784 7.261961 5.351575 -20.84012 5.754658 5.81678 -16.09727 11.72884 85.23801 34.89136 -17.44576 -0 0 10.21404 -18.02278 10.07139 9.304814 7.613459 -22.74705 -2.676946 -86.45139 13.53581 12.09742 0 0 -18.39275 12.80294 8.757778 -2.890375
-957.7152 108.4251 2573.981 -6.337221 -0.7987327 -69.97845 8.123395 -8.762516 -0.6818141 -0 12.12058 -0 -13.85299 0.2192873 -1.032998 -1.372274 0.2495427 -6.386872 -0 54.11818 -0 0.201737 -4.725962 13.10023 -2.488371 -0.1425556 4.636753 1.619114 11.07103 -7.16215 0.5426843 20.53382 7.066261 5.246488 -20.60245 5.647448 5.766596 -16.68105 11.74448 84.33568 34.66897 -16.03003 -0 0 11.55987 -18.14256 9.995094 9.638725 7.308806 -22.17268 -2.621998 -87.16726 14.2015 13.6125 0 0 -17.00098 11.8025 8.906115 -1.631836
-962.7742 109.4333 2575.65 -6.874214 -1.184291 -70.83118 7.962014 -4.218728 -0.4464723 -0 11.01816 -0 -13.3455 -2.434384 -0.9715192 -0.689018 -5.196229 -5.63522 -0 54.83618 -0 -0.2760517 -3.742733 13.91014 -2.471574 -0.1189839 4.982024 1.401321 11.03846 -6.784092 0.6092978 20.62935 6.853253 5.15383 -20.26143 5.497412 5.697206 -17.25479 11.75635 83.42501 34.37962 -14.5601 -0 0 12.92632 -18.33719 9.884141 9.975626 7.013148 -21.60091 -2.597252 -87.86909 14.77362 15.07849 0 0 -15.61456 10.8005 9.00074 -0.4065207
-967.6093 110.0417 2577.276 -7.344387 -1.506615 -71.75536 7.757252 0.05587031 -0.5037179 -0 9.406193 -0 -12.63039 -4.992627 -0.7945026 0.1806496 -10.57644 -4.621925 -0 51.9557 -0 -0.1166527 -3.423469 14.99076 -2.457879 -0.09214145 5.348725 1.160433 11.01386 -6.383874 0.6773944 20.73317 6.631513 5.070047 -19.86765 5.32829 5.614096 -17.84085 11.76737 82.50213 34.03432 -13.03917 -0 0 14.34075 -18.5763 9.747707 10.30699 6.726721 -21.0256 -2.585401 -88.58872 15.25962 16.55145 0 0 -14.20291 9.826987 9.060084 0.7593094
-972.3364 110.1524 2578.953 -7.563315 -1.620484 -72.68283 7.517718 3.939818 -0.7095269 -0 7.918749 -0 -11.87565 -7.432389 -0.5636197 1.226361 -15.39079 -3.54506 -0 45.754 -0 0.4765905 -3.417563 15.9972 -2.443133 -0.07878747 5.748777 0.9070678 10.99428 -5.965256 0.7470283 20.83223 6.404426 4.987729 -19.47444 5.160211 5.525038 -18.475 11.78216 81.55221 33.64236 -11.46132 -0 0 15.85717 -18.81133 9.590992 10.62105 6.441921 -20.43488 -2.568897 -89.37803 15.69268 18.12319 0 0 -12.72814 8.879937 9.110349 1.881913
-977.0773 109.7673 2580.753 -7.411843 -1.497595 -73.54576 7.152422 7.441769 -0.8167524 -0 7.130404 -0 -11.1554 -9.893283 -0.3947474 2.278172 -19.24994 -2.740999 -0 37.2758 -0 1.082438 -3.419411 16.70483 -2.424949 -0.08828547 6.179148 0.6536538 10.97959 -5.542876 0.8160861 20.91679 6.174961 4.903036 -19.11348 5.001772 5.4366 -19.16199 11.8035 80.59263 33.21337 -9.866155 -0 0 17.47101 -19.00523 9.418505 10.9033 6.157787 -19.83783 -2.542325 -90.24607 16.08806 19.8064 0 0 -11.21565 7.960769 9.162394 2.968056
-981.9296 108.9674 2582.706 -6.966933 -1.249675 -74.30445 6.565391 10.58149 -0.636733 -0 7.437772 -0 -10.43528 -12.31949 -0.3904113 3.055964 -21.84269 -2.500256 -0 28.11861 -0 1.371781 -3.307593 17.11729 -2.405031 -0.1152041 6.60387 0.4168819 10.97168 -5.147982 0.8798132 20.9844 5.955162 4.821813 -18.79322 4.85569 5.353512 -19.84328 11.82853 79.69976 32.77541 -8.373526 -0 0 19.0523 -19.15137 9.242552 11.13834 5.892966 -19.28008 -2.513885 -91.11497 16.4191 21.45678 0 0 -9.784003 7.12009 9.208702 3.956394
-986.9695 107.8989 2584.81 -6.488631 -1.063153 -74.95737 5.754128 13.34396 -0.2085348 -0 9.00376 -0 -9.712717 -14.16558 -0.5182822 3.303782 -22.98257 -2.909093 -0 20.07361 -0 1.305654 -3.126595 17.42687 -2.387693 -0.1446257 6.965356 0.2174131 10.97136 -4.819801 0.9321445 21.03679 5.76807 4.756421 -18.52138 4.729417 5.281679 -20.42226 11.85079 78.97484 32.38421 -7.141637 -0 0 20.3913 -19.26469 9.086485 11.31668 5.678376 -18.82474 -2.49377 -91.8546 16.64448 22.84204 0 0 -8.590741 6.448276 9.239436 4.736156
-992.2659 106.7613 2587.05 -6.256825 -1.090921 -75.52932 4.820529 15.70329 0.2103043 -0 11.75941 -0 -9.110223 -14.59641 -0.601832 2.918923 -22.69603 -3.832921 -0 14.51705 -0 1.081035 -2.987523 17.85193 -2.376371 -0.1641355 7.217697 0.07295411 10.9763 -4.587642 0.968516 21.07528 5.635596 4.715915 -18.31499 4.634826 5.228253 -20.82411 11.86539 78.4831 32.0986 -6.283323 -0 0 21.32301 -19.3573 8.973504 11.43737 5.536082 -18.51524 -2.484935 -92.36493 16.75329 23.79054 0 0 -7.748694 6.011467 9.254389 5.231267
-997.8737 105.7808 2589.413 -6.400661 -1.380611 -76.04733 3.879044 17.62977 0.3526652 -0 15.5668 -0 -8.813922 -13.03197 -0.4491123 1.957345 -21.20182 -5.066537 -0 11.89792 -0 0.9195893 -2.981474 18.48755 -2.372099 -0.1691842 7.344418 -0.00788263 10.98222 -4.46235 0.9875015 21.1 5.567354 4.701173 -18.18947 4.580328 5.197898 -21.02321 11.87094 78.23593 31.9496 -5.833064 -0 0 21.79016 -19.42828 8.914509 11.50382 5.469853 -18.36103 -2.484866 -92.61377 16.77064 24.25252 0 0 -7.298566 5.816116 9.258607 5.441204
-1003.803 105.1787 2591.881 -6.863702 -1.885531 -76.51846 2.972734 19.03677 0.1027645 -0 20.38629 -0 -8.996683 -9.406607 0.06739966 0.5376673 -18.7859 -6.488052 -0 11.8294 -0 0.9250163 -3.162461 19.27908 -2.374382 -0.1597773 7.347163 -0.02275577 10.98544 -4.444517 0.9896206 21.11045 5.563188 4.707874 -18.15266 4.568924 5.191196 -21.02205 11.86796 78.22234 31.93913 -5.785911 -0 0 21.79867 -19.47098 8.9103 11.52029 5.473222 -18.35409 -2.490838 -92.60666 16.73086 24.24252 0 0 -7.247043 5.833762 9.25299 5.407105
-1009.985 105.1378 2594.424 -7.468414 -2.514563 -76.91618 2.072312 19.70033 -0.5194828 -0 26.24038 -0 -9.808848 -4.038349 1.043961 -1.223153 -15.72593 -8.072968 -0 13.53363 -0 1.081675 -3.592532 20.07016 -2.382382 -0.1357084 7.227691 0.03051807 10.98408 -4.536028 0.9755433 21.10584 5.620775 4.73066 -18.20764 4.601237 5.205467 -20.82157 11.857 78.44298 32.05438 -6.146135 -0 0 21.35129 -19.48182 8.960085 11.49099 5.539904 -18.48901 -2.502833 -92.34533 16.65645 23.76545 0 0 -7.611496 6.03627 9.230199 5.167936
-1016.243 105.7548 2596.996 -7.962172 -3.154126 -77.17275 1.11679 19.19708 -1.413615 -0 32.985 -0 -11.33978 2.421399 2.553171 -3.184283 -12.34393 -9.808783 -0 16.03374 -0 1.290205 -4.393979 20.62873 -2.395123 -0.09573749 6.984634 0.154118 10.97884 -4.740983 0.9459135 21.08566 5.736554 4.764534 -18.35109 4.675362 5.235151 -20.417 11.8381 78.9142 32.27214 -6.931526 -0 0 20.4381 -19.463 9.063795 11.42001 5.666019 -18.76675 -2.524387 -91.82126 16.55139 22.8055 0 0 -8.419949 6.404799 9.176876 4.748329
